<?xml version="1.0" encoding="UTF-8" standalone="no"?>
<!DOCTYPE svg PUBLIC "-//W3C//DTD SVG 1.1//EN" "http://www.w3.org/Graphics/SVG/1.1/DTD/svg11.dtd">
<svg width="100%" height="100%" viewBox="0 0 21 29" version="1.1" xmlns="http://www.w3.org/2000/svg" xmlns:xlink="http://www.w3.org/1999/xlink" xml:space="preserve" xmlns:serif="http://www.serif.com/" style="fill-rule:evenodd;clip-rule:evenodd;stroke-linejoin:round;stroke-miterlimit:2;">
    <g transform="matrix(1,0,0,1,-390,0)">
        <g id="Artboard11" transform="matrix(1,0,0,1,-189.333,0)">
            <rect x="579.333" y="0" width="21" height="29" style="fill:none;"/>
            <g transform="matrix(-1,1.22465e-16,-1.22465e-16,-1,1099.67,28.2076)">
                <g transform="matrix(0.389067,0,0,0.389067,392.311,17.0109)">
                    <path d="M302.061,14.076C303.062,14.076 303.916,13.685 304.698,12.879L323.057,-5.895C323.692,-6.53 324.009,-7.287 324.009,-8.19C324.009,-10.021 322.544,-11.51 320.713,-11.51C319.834,-11.51 318.98,-11.12 318.321,-10.46L302.085,6.239L285.801,-10.46C285.142,-11.12 284.312,-11.51 283.384,-11.51C281.578,-11.51 280.113,-10.021 280.113,-8.19C280.113,-7.287 280.454,-6.53 281.065,-5.895L299.424,12.904C300.23,13.685 301.06,14.076 302.061,14.076Z" style="fill:rgb(0,255,65);fill-rule:nonzero;"/>
                </g>
                <g transform="matrix(0.389067,0,0,0.389067,392.311,9.40622)">
                    <path d="M302.061,14.076C303.062,14.076 303.916,13.685 304.698,12.879L323.057,-5.895C323.692,-6.53 324.009,-7.287 324.009,-8.19C324.009,-10.021 322.544,-11.51 320.713,-11.51C319.834,-11.51 318.98,-11.12 318.321,-10.46L302.085,6.239L285.801,-10.46C285.142,-11.12 284.312,-11.51 283.384,-11.51C281.578,-11.51 280.113,-10.021 280.113,-8.19C280.113,-7.287 280.454,-6.53 281.065,-5.895L299.424,12.904C300.23,13.685 301.06,14.076 302.061,14.076Z" style="fill:rgb(0,255,65);fill-rule:nonzero;"/>
                </g>
            </g>
        </g>
    </g>
</svg>
