<?xml version="1.0" encoding="UTF-8" standalone="no"?>
<!DOCTYPE svg PUBLIC "-//W3C//DTD SVG 1.1//EN" "http://www.w3.org/Graphics/SVG/1.1/DTD/svg11.dtd">
<svg width="100%" height="100%" viewBox="0 0 24 24" version="1.1" xmlns="http://www.w3.org/2000/svg" xmlns:xlink="http://www.w3.org/1999/xlink" xml:space="preserve" xmlns:serif="http://www.serif.com/" style="fill-rule:evenodd;clip-rule:evenodd;stroke-linejoin:round;stroke-miterlimit:2;">
    <g transform="matrix(1,0,0,1,-530,0)">
        <g id="Artboard15" transform="matrix(1.14286,0,0,0.827586,-298.952,0)">
            <rect x="725.333" y="0" width="21" height="29" style="fill:none;"/>
            <g transform="matrix(0.381277,0,0,0.526525,521.299,17.4627)">
                <path d="M538.577,-10.07C538.577,0.892 547.488,9.803 558.45,9.803C562.527,9.803 566.263,8.558 569.388,6.434L580.618,17.664C581.302,18.372 582.254,18.689 583.206,18.689C585.281,18.689 586.771,17.127 586.771,15.101C586.771,14.124 586.429,13.221 585.77,12.537L574.612,1.355C576.932,-1.843 578.323,-5.798 578.323,-10.07C578.323,-21.032 569.412,-29.943 558.45,-29.943C547.488,-29.943 538.577,-21.032 538.577,-10.07ZM543.753,-10.07C543.753,-18.176 550.32,-24.768 558.45,-24.768C566.556,-24.768 573.148,-18.176 573.148,-10.07C573.148,-1.965 566.556,4.627 558.45,4.627C550.32,4.627 543.753,-1.965 543.753,-10.07Z" style="fill:rgb(255,198,253);fill-rule:nonzero;"/>
            </g>
        </g>
    </g>
</svg>
