<?xml version="1.0" encoding="UTF-8" standalone="no"?>
<!DOCTYPE svg PUBLIC "-//W3C//DTD SVG 1.1//EN" "http://www.w3.org/Graphics/SVG/1.1/DTD/svg11.dtd">
<svg width="100%" height="100%" viewBox="0 0 17 17" version="1.1" xmlns="http://www.w3.org/2000/svg" xmlns:xlink="http://www.w3.org/1999/xlink" xml:space="preserve" xmlns:serif="http://www.serif.com/" style="fill-rule:evenodd;clip-rule:evenodd;stroke-linejoin:round;stroke-miterlimit:2;">
    <g transform="matrix(1,0,0,1,-500,0)">
        <g id="Artboard14" transform="matrix(1,0,0,1,-195.333,0)">
            <rect x="695.333" y="0" width="17" height="17" style="fill:none;"/>
            <clipPath id="_clip1">
                <rect x="695.333" y="0" width="17" height="17"/>
            </clipPath>
            <g clip-path="url(#_clip1)">
                <g transform="matrix(0.076446,0,0,0.076446,662.207,12.3695)">
                    <path d="M485.176,-8.925L535.291,-8.925L535.291,35.382C535.291,48.59 541.942,61.891 544.565,61.891C547.094,61.891 553.745,48.59 553.745,35.382L553.745,-8.925L603.86,-8.925C612.758,-8.925 618.473,-14.546 618.473,-22.976C618.473,-43.116 602.454,-63.068 578.006,-72.81L574.915,-117.117C586.998,-125.079 598.052,-133.885 602.829,-140.067C605.452,-143.346 606.67,-146.718 606.67,-149.715C606.67,-155.898 601.892,-160.488 594.867,-160.488L494.169,-160.488C487.143,-160.488 482.366,-155.898 482.366,-149.715C482.366,-146.718 483.584,-143.346 486.207,-140.067C490.984,-133.885 502.131,-125.079 514.121,-117.117L511.124,-72.81C486.581,-63.068 470.563,-43.116 470.563,-22.976C470.563,-14.546 476.277,-8.925 485.176,-8.925ZM530.795,-124.611C530.888,-126.204 530.607,-126.859 529.483,-127.515C516.744,-134.072 506.908,-141.66 505.409,-143.72C504.66,-144.751 505.316,-145.594 506.346,-145.594L582.783,-145.594C583.72,-145.594 584.376,-144.751 583.626,-143.72C582.221,-141.66 572.292,-134.072 559.552,-127.515C558.428,-126.859 558.147,-126.204 558.241,-124.611L561.051,-77.681C555.712,-78.618 550.279,-79.18 544.565,-79.18C538.851,-79.18 533.324,-78.618 527.985,-77.681L530.795,-124.611ZM489.485,-24.756C487.612,-24.756 486.675,-25.786 487.05,-28.034C489.298,-44.802 511.405,-63.817 544.565,-63.817C577.725,-63.817 599.738,-44.802 601.986,-28.034C602.361,-25.786 601.424,-24.756 599.644,-24.756L489.485,-24.756Z" style="fill:rgb(255,208,0);fill-rule:nonzero;"/>
                </g>
            </g>
        </g>
    </g>
</svg>
