<?xml version="1.0" encoding="UTF-8"?>
<svg width="22px" height="20px" viewBox="0 0 22 20" version="1.1" xmlns="http://www.w3.org/2000/svg" xmlns:xlink="http://www.w3.org/1999/xlink">
    <title>Group 16</title>
    <g id="December-Delights" stroke="none" stroke-width="1" fill="none" fill-rule="evenodd">
        <g id="Main-Page" transform="translate(-143.000000, -1387.000000)">
            <g id="Group-13" transform="translate(113.000000, 1375.000000)">
                <g id="Group-16" transform="translate(30.000000, 12.000000)">
                    <rect id="Rectangle" x="0" y="0" width="22" height="20"></rect>
                    <g id="ô€" transform="translate(2.331793, 1.432129)" fill="#FFFFFF" fill-rule="nonzero">
                        <path d="M8.57470703,17.1494141 C13.2646484,17.1494141 17.1494141,13.2729492 17.1494141,8.57470703 C17.1494141,3.88476562 13.2646484,0 8.56640625,0 C3.87646484,0 0,3.88476562 0,8.57470703 C0,13.2729492 3.88476562,17.1494141 8.57470703,17.1494141 Z M4.515625,8.58300781 C4.515625,8.1015625 4.85595703,7.76123047 5.33740234,7.76123047 L7.76123047,7.76123047 L7.76123047,5.32910156 C7.76123047,4.85595703 8.09326172,4.50732422 8.56640625,4.50732422 C9.04785156,4.50732422 9.38818359,4.85595703 9.38818359,5.32910156 L9.38818359,7.76123047 L11.8203125,7.76123047 C12.293457,7.76123047 12.6337891,8.1015625 12.6337891,8.58300781 C12.6337891,9.05615234 12.293457,9.38818359 11.8203125,9.38818359 L9.38818359,9.38818359 L9.38818359,11.8203125 C9.38818359,12.293457 9.04785156,12.6337891 8.56640625,12.6337891 C8.09326172,12.6337891 7.76123047,12.293457 7.76123047,11.8203125 L7.76123047,9.38818359 L5.33740234,9.38818359 C4.85595703,9.38818359 4.515625,9.05615234 4.515625,8.58300781 Z" id="Shape"></path>
                    </g>
                </g>
            </g>
        </g>
    </g>
</svg>