<?xml version="1.0" encoding="UTF-8"?>
<svg width="39px" height="39px" viewBox="0 0 39 39" version="1.1" xmlns="http://www.w3.org/2000/svg" xmlns:xlink="http://www.w3.org/1999/xlink">
    <title>Shape</title>
    <g id="December-Delights" stroke="none" stroke-width="1" fill="none" fill-rule="evenodd">
        <g id="New-Order" transform="translate(-116.000000, -994.000000)" fill="#A7B0C8" fill-rule="nonzero">
            <g id="Group-13" transform="translate(113.000000, 992.000000)">
                <g id="ô€" transform="translate(3.321289, 2.677734)">
                    <path d="M18.9257812,37.8515625 C29.2792969,37.8515625 37.8515625,29.2607422 37.8515625,18.9257812 C37.8515625,8.57226562 29.2607422,0 18.9072266,0 C8.57226562,0 0,8.57226562 0,18.9257812 C0,29.2607422 8.59082031,37.8515625 18.9257812,37.8515625 Z M9.87109375,18.9443359 C9.87109375,17.9794922 10.5390625,17.3115234 11.5039062,17.3115234 L17.3115234,17.3115234 L17.3115234,11.5039062 C17.3115234,10.5390625 17.9609375,9.85253906 18.9072266,9.85253906 C19.8720703,9.85253906 20.5400391,10.5390625 20.5400391,11.5039062 L20.5400391,17.3115234 L26.3662109,17.3115234 C27.3125,17.3115234 27.9990234,17.9794922 27.9990234,18.9443359 C27.9990234,19.890625 27.3125,20.5214844 26.3662109,20.5214844 L20.5400391,20.5214844 L20.5400391,26.3476562 C20.5400391,27.3125 19.8720703,27.9804688 18.9072266,27.9804688 C17.9609375,27.9804688 17.3115234,27.2939453 17.3115234,26.3476562 L17.3115234,20.5214844 L11.5039062,20.5214844 C10.5390625,20.5214844 9.87109375,19.890625 9.87109375,18.9443359 Z" id="Shape"></path>
                </g>
            </g>
        </g>
    </g>
</svg>