<?xml version="1.0" encoding="UTF-8"?>
<svg width="28px" height="28px" viewBox="0 0 28 28" version="1.1" xmlns="http://www.w3.org/2000/svg" xmlns:xlink="http://www.w3.org/1999/xlink">
    <title>Group 7</title>
    <g id="December-Delights" stroke="none" stroke-width="1" fill="none" fill-rule="evenodd">
        <g id="New-Order" transform="translate(-330.000000, -559.000000)">
            <g id="Group-8" transform="translate(16.000000, 333.000000)">
                <g id="Group-9" transform="translate(16.000000, 226.000000)">
                    <g id="Group-7" transform="translate(298.000000, 0.000000)">
                        <circle id="Oval" fill="#D8D8D8" cx="14" cy="14" r="14"></circle>
                        <path d="M7.86962891,13.7119141 C7.86962891,14.1660156 8.24316406,14.5322266 8.68994141,14.5322266 L13.1796875,14.5322266 L13.1796875,19.0219727 C13.1796875,19.46875 13.5532227,19.8422852 14,19.8422852 C14.4467773,19.8422852 14.8203125,19.46875 14.8203125,19.0219727 L14.8203125,14.5322266 L19.3100586,14.5322266 C19.7568359,14.5322266 20.1303711,14.1660156 20.1303711,13.7119141 C20.1303711,13.2651367 19.7568359,12.8916016 19.3100586,12.8916016 L14.8203125,12.8916016 L14.8203125,8.40185547 C14.8203125,7.95507812 14.4467773,7.58154297 14,7.58154297 C13.5532227,7.58154297 13.1796875,7.95507812 13.1796875,8.40185547 L13.1796875,12.8916016 L8.68994141,12.8916016 C8.24316406,12.8916016 7.86962891,13.2651367 7.86962891,13.7119141 Z" id="Path" fill="#000000" fill-rule="nonzero"></path>
                    </g>
                </g>
            </g>
        </g>
    </g>
</svg>