<?xml version="1.0" encoding="UTF-8" standalone="no"?>
<!DOCTYPE svg PUBLIC "-//W3C//DTD SVG 1.1//EN" "http://www.w3.org/Graphics/SVG/1.1/DTD/svg11.dtd">
<svg width="100%" height="100%" viewBox="0 0 19 19" version="1.1" xmlns="http://www.w3.org/2000/svg" xmlns:xlink="http://www.w3.org/1999/xlink" xml:space="preserve" xmlns:serif="http://www.serif.com/" style="fill-rule:evenodd;clip-rule:evenodd;stroke-linejoin:round;stroke-miterlimit:2;">
    <g transform="matrix(1,0,0,1,-690,0)">
        <g id="Artboard19" transform="matrix(1,0,0,1,-187.333,0)">
            <rect x="877.333" y="0" width="19" height="19" style="fill:none;"/>
            <clipPath id="_clip1">
                <rect x="877.333" y="0" width="19" height="19"/>
            </clipPath>
            <g clip-path="url(#_clip1)">
                <g transform="matrix(0.310892,0,0,0.310892,658.743,14.0465)">
                    <path d="M726.489,15.38C728.322,15.38 729.705,14.619 730.708,13.132L763.22,-37.572C763.946,-38.679 764.223,-39.648 764.223,-40.581C764.223,-42.968 762.563,-44.628 760.142,-44.628C758.447,-44.628 757.444,-44.04 756.406,-42.414L726.351,5.315L710.856,-14.572C709.853,-15.921 708.815,-16.475 707.293,-16.475C704.872,-16.475 703.108,-14.745 703.108,-12.359C703.108,-11.321 703.489,-10.318 704.353,-9.246L722.269,13.166C723.48,14.653 724.76,15.38 726.489,15.38Z" style="fill:rgb(0,81,255);fill-rule:nonzero;"/>
                </g>
            </g>
        </g>
    </g>
</svg>
