<?xml version="1.0" encoding="UTF-8"?>
<svg width="20px" height="20px" viewBox="0 0 20 20" version="1.1" xmlns="http://www.w3.org/2000/svg" xmlns:xlink="http://www.w3.org/1999/xlink">
    <title>􀆅</title>
    <g id="December-Delights" stroke="none" stroke-width="1" fill="none" fill-rule="evenodd">
        <g id="Main-Page" transform="translate(-338.000000, -290.000000)" fill="#0A84FF" fill-rule="nonzero">
            <g id="Group-4" transform="translate(16.000000, 233.000000)">
                <g id="Group-3" transform="translate(0.000000, 45.000000)">
                    <g id="􀆅" transform="translate(322.000000, 12.000000)">
                        <path d="M7.72802734,17.4111328 C8.16796875,17.4111328 8.5,17.2285156 8.74072266,16.871582 L16.543457,4.70263672 C16.7177734,4.43701172 16.7841797,4.20458984 16.7841797,3.98046875 C16.7841797,3.40771484 16.3857422,3.00927734 15.8046875,3.00927734 C15.3979492,3.00927734 15.1572266,3.15039062 14.9082031,3.54052734 L7.69482422,14.9956055 L3.97607422,10.2226562 C3.73535156,9.89892578 3.48632812,9.76611328 3.12109375,9.76611328 C2.54003906,9.76611328 2.11669922,10.1811523 2.11669922,10.7539062 C2.11669922,11.0029297 2.20800781,11.2436523 2.41552734,11.5009766 L6.71533203,16.8798828 C7.00585938,17.2368164 7.31298828,17.4111328 7.72802734,17.4111328 Z" id="Path"></path>
                    </g>
                </g>
            </g>
        </g>
    </g>
</svg>