<?xml version="1.0" encoding="UTF-8" standalone="no"?>
<!DOCTYPE svg PUBLIC "-//W3C//DTD SVG 1.1//EN" "http://www.w3.org/Graphics/SVG/1.1/DTD/svg11.dtd">
<svg width="100%" height="100%" viewBox="0 0 13 19" version="1.1" xmlns="http://www.w3.org/2000/svg" xmlns:xlink="http://www.w3.org/1999/xlink" xml:space="preserve" xmlns:serif="http://www.serif.com/" style="fill-rule:evenodd;clip-rule:evenodd;stroke-linejoin:round;stroke-miterlimit:2;">
    <g transform="matrix(1,0,0,1,-140,0)">
        <g id="Artboard4" transform="matrix(0.5,0,0,0.730769,-27.1667,0)">
            <rect x="334.333" y="0" width="26" height="26" style="fill:none;"/>
            <g transform="matrix(0.520364,0,0,0.356039,333.421,16.3775)">
                <path d="M43.777,-9.503C43.777,-10.837 43.289,-11.944 42.247,-12.986L17.182,-37.497C16.336,-38.344 15.327,-38.734 14.122,-38.734C11.681,-38.734 9.695,-36.814 9.695,-34.372C9.695,-33.168 10.216,-32.061 11.095,-31.182L33.361,-9.535L11.095,12.177C10.216,13.056 9.695,14.13 9.695,15.367C9.695,17.809 11.681,19.762 14.122,19.762C15.327,19.762 16.336,19.339 17.182,18.492L42.247,-6.02C43.322,-7.061 43.777,-8.168 43.777,-9.503Z" style="fill:rgb(89,89,89);fill-rule:nonzero;"/>
            </g>
        </g>
    </g>
</svg>
