<?xml version="1.0" encoding="UTF-8"?>
<svg width="13px" height="22px" viewBox="0 0 13 22" version="1.1" xmlns="http://www.w3.org/2000/svg" xmlns:xlink="http://www.w3.org/1999/xlink">
    <title>Group 6</title>
    <g id="General" stroke="none" stroke-width="1" fill="none" fill-rule="evenodd">
        <g id="Main-Menu" transform="translate(-345.000000, -169.000000)" fill="#5A5A5F" fill-rule="nonzero">
            <g id="Group" transform="translate(16.000000, 158.000000)">
                <g id="Group-6" transform="translate(329.000000, 11.000000)">
                    <g id="􀆊" transform="translate(3.746716, 3.552086)">
                        <path d="M8.69117737,7.45475006 C8.68944804,7.28475698 8.65600713,7.12782033 8.59085464,6.98394012 C8.52570216,6.84005992 8.4254659,6.7013677 8.29014587,6.56786346 L1.90775299,0.315689087 C1.69348907,0.105229696 1.4311498,0 1.12073517,0 C0.917538961,0 0.730230967,0.0498479207 0.558811188,0.149543762 C0.387391408,0.249239604 0.251401265,0.382960002 0.150840759,0.550704956 C0.0502802531,0.71844991 0,0.905822754 0,1.11282349 C0,1.42098999 0.11664327,1.69197591 0.34992981,1.92578125 L6.03012848,7.45215607 L0.34992981,12.9837189 C0.11664327,13.2210693 0,13.4929199 0,13.7992706 C0,14.0062714 0.0502802531,14.1936442 0.150840759,14.3613892 C0.251401265,14.5291341 0.387391408,14.6628761 0.558811188,14.7626152 C0.730230967,14.8623543 0.917538961,14.9122238 1.12073517,14.9122238 C1.4311498,14.9122238 1.69348907,14.8050919 1.90775299,14.5908279 L8.29014587,8.34163666 C8.42719523,8.20813243 8.52829615,8.06900787 8.59344864,7.924263 C8.65860113,7.77951813 8.69117737,7.62301381 8.69117737,7.45475006 Z" id="Path"></path>
                    </g>
                </g>
            </g>
        </g>
    </g>
</svg>