<?xml version="1.0" encoding="UTF-8" standalone="no"?>
<!DOCTYPE svg PUBLIC "-//W3C//DTD SVG 1.1//EN" "http://www.w3.org/Graphics/SVG/1.1/DTD/svg11.dtd">
<svg width="100%" height="100%" viewBox="0 0 19 19" version="1.1" xmlns="http://www.w3.org/2000/svg" xmlns:xlink="http://www.w3.org/1999/xlink" xml:space="preserve" xmlns:serif="http://www.serif.com/" style="fill-rule:evenodd;clip-rule:evenodd;stroke-linejoin:round;stroke-miterlimit:2;">
    <g transform="matrix(1,0,0,1,-730,0)">
        <g id="Artboard20" transform="matrix(1,0,0,1,-187.333,0)">
            <rect x="917.333" y="0" width="19" height="19" style="fill:none;"/>
            <clipPath id="_clip1">
                <rect x="917.333" y="0" width="19" height="19"/>
            </clipPath>
            <g clip-path="url(#_clip1)">
                <g transform="matrix(0.344855,0,0,0.344855,666.91,14.614)">
                    <path d="M776.384,-31.278L779.877,-34.702C781.641,-36.466 781.71,-38.368 780.154,-39.959L778.978,-41.135C777.421,-42.691 775.519,-42.518 773.755,-40.823L770.262,-37.365L776.384,-31.278ZM735.606,9.396L773.34,-28.303L767.288,-34.39L729.519,3.344L726.233,11.022C725.922,11.852 726.787,12.82 727.617,12.474L735.606,9.396Z" style="fill:rgb(0,81,255);fill-rule:nonzero;"/>
                </g>
            </g>
        </g>
    </g>
</svg>
