<?xml version="1.0" encoding="UTF-8"?>
<svg width="27px" height="26px" viewBox="0 0 27 26" version="1.1" xmlns="http://www.w3.org/2000/svg" xmlns:xlink="http://www.w3.org/1999/xlink">
    <title>Group 9</title>
    <g id="General" stroke="none" stroke-width="1" fill="none" fill-rule="evenodd">
        <g id="Signup" transform="translate(-331.000000, -229.000000)" fill="#0A84FF" fill-rule="nonzero">
            <g id="Group-7" transform="translate(16.000000, 217.000000)">
                <g id="Group-2" transform="translate(16.000000, 6.000000)">
                    <g id="Group-9" transform="translate(299.000000, 6.000000)">
                        <path d="M13.0195312,24.3408203 C19.0888672,24.3408203 24.1162109,19.3242188 24.1162109,13.2441406 C24.1162109,7.17480469 19.0888672,2.14746094 13.0087891,2.14746094 C6.93945312,2.14746094 1.92285156,7.17480469 1.92285156,13.2441406 C1.92285156,19.3242188 6.95019531,24.3408203 13.0195312,24.3408203 Z M18.7880859,13.2333984 C18.7880859,13.5556641 18.6699219,13.7919922 18.4121094,14.0283203 L14.6308594,17.7558594 C14.4482422,17.9492188 14.2333984,18.0351562 13.9541016,18.0351562 C13.4384766,18.0351562 13.0517578,17.6376953 13.0517578,17.1113281 C13.0517578,16.8427734 13.1699219,16.5957031 13.3525391,16.4345703 L14.6953125,15.1455078 L15.9521484,14.125 L13.6533203,14.2324219 L8.20703125,14.2324219 C7.63769531,14.2324219 7.24023438,13.8134766 7.24023438,13.2333984 C7.24023438,12.6533203 7.63769531,12.234375 8.20703125,12.234375 L13.6533203,12.234375 L15.9521484,12.3417969 L14.6845703,11.3320312 L13.3525391,10.0429688 C13.1806641,9.87109375 13.0517578,9.62402344 13.0517578,9.36621094 C13.0517578,8.82910156 13.4384766,8.44238281 13.9541016,8.44238281 C14.2333984,8.44238281 14.4482422,8.52832031 14.6308594,8.7109375 L18.4121094,12.4492188 C18.6806641,12.6962891 18.7880859,12.9326172 18.7880859,13.2333984 Z" id="Shape"></path>
                    </g>
                </g>
            </g>
        </g>
    </g>
</svg>