<?xml version="1.0" encoding="UTF-8" standalone="no"?>
<!DOCTYPE svg PUBLIC "-//W3C//DTD SVG 1.1//EN" "http://www.w3.org/Graphics/SVG/1.1/DTD/svg11.dtd">
<svg width="100%" height="100%" viewBox="0 0 26 26" version="1.1" xmlns="http://www.w3.org/2000/svg" xmlns:xlink="http://www.w3.org/1999/xlink" xml:space="preserve" xmlns:serif="http://www.serif.com/" style="fill-rule:evenodd;clip-rule:evenodd;stroke-linejoin:round;stroke-miterlimit:2;">
    <g transform="matrix(1,0,0,1,-100,0)">
        <g id="Artboard3" transform="matrix(1.08333,0,0,1.08333,-216.694,0)">
            <rect x="292.333" y="0" width="24" height="24" style="fill:none;"/>
            <g transform="matrix(0.402465,0,0,0.402465,250.199,10.8437)">
                <path d="M134.508,27.775C148.131,27.775 159.41,16.472 159.41,2.873C159.41,-10.75 148.106,-22.029 134.483,-22.029C120.885,-22.029 109.605,-10.75 109.605,2.873C109.605,16.472 120.909,27.775 134.508,27.775ZM147.447,2.849C147.447,3.41 147.227,3.85 146.739,4.313L138.243,12.834C137.901,13.176 137.462,13.371 136.925,13.371C135.875,13.371 135.094,12.565 135.094,11.516C135.094,10.979 135.313,10.515 135.655,10.173L138.78,7.072L141.832,4.533L136.51,4.729L123.424,4.729C122.325,4.729 121.519,3.947 121.519,2.849C121.519,1.726 122.325,0.944 123.424,0.944L136.51,0.944L141.832,1.164L138.78,-1.375L135.655,-4.476C135.338,-4.842 135.094,-5.306 135.094,-5.843C135.094,-6.893 135.875,-7.674 136.925,-7.674C137.462,-7.674 137.901,-7.503 138.243,-7.161L146.739,1.384C147.252,1.896 147.447,2.287 147.447,2.849Z" style="fill:rgb(30,108,248);fill-rule:nonzero;"/>
            </g>
        </g>
    </g>
</svg>
