<?xml version="1.0" encoding="UTF-8"?>
<svg width="14px" height="14px" viewBox="0 0 14 14" version="1.1" xmlns="http://www.w3.org/2000/svg" xmlns:xlink="http://www.w3.org/1999/xlink">
    <title>􀅼</title>
    <g id="December-Delights" stroke="none" stroke-width="1" fill="none" fill-rule="evenodd">
        <g id="New-Order" transform="translate(-337.000000, -566.000000)">
            <g id="Group-8" transform="translate(16.000000, 333.000000)">
                <g id="Group-9" transform="translate(16.000000, 226.000000)">
                    <g id="Group-7" transform="translate(298.000000, 0.000000)">
                        <g id="􀅼" transform="translate(7.000000, 7.000000)">
                            <rect id="Rectangle" x="0" y="0" width="14" height="14"></rect>
                            <path d="M0.869628906,7 C0.869628906,7.45410156 1.24316406,7.8203125 1.68994141,7.8203125 L6.1796875,7.8203125 L6.1796875,12.3100586 C6.1796875,12.7568359 6.55322266,13.1303711 7,13.1303711 C7.44677734,13.1303711 7.8203125,12.7568359 7.8203125,12.3100586 L7.8203125,7.8203125 L12.3100586,7.8203125 C12.7568359,7.8203125 13.1303711,7.45410156 13.1303711,7 C13.1303711,6.55322266 12.7568359,6.1796875 12.3100586,6.1796875 L7.8203125,6.1796875 L7.8203125,1.68994141 C7.8203125,1.24316406 7.44677734,0.869628906 7,0.869628906 C6.55322266,0.869628906 6.1796875,1.24316406 6.1796875,1.68994141 L6.1796875,6.1796875 L1.68994141,6.1796875 C1.24316406,6.1796875 0.869628906,6.55322266 0.869628906,7 Z" id="Path" fill="#000000" fill-rule="nonzero"></path>
                        </g>
                    </g>
                </g>
            </g>
        </g>
    </g>
</svg>