<?xml version="1.0" encoding="UTF-8"?>
<svg width="14px" height="14px" viewBox="0 0 14 14" version="1.1" xmlns="http://www.w3.org/2000/svg" xmlns:xlink="http://www.w3.org/1999/xlink">
    <title>Group</title>
    <g id="December-Delights" stroke="none" stroke-width="1" fill="none" fill-rule="evenodd">
        <g id="Artboard" transform="translate(-395.000000, -389.000000)">
            <g id="Group-8" transform="translate(74.000000, 156.000000)">
                <g id="Group-9" transform="translate(16.000000, 226.000000)">
                    <g id="Group-7" transform="translate(298.000000, 0.000000)">
                        <g id="Group" transform="translate(7.000000, 7.000000)">
                            <rect id="Rectangle" x="0" y="0" width="14" height="14"></rect>
                            <path d="M1,7.13037109 C1,7.58447266 1.37353516,7.95068359 1.8203125,7.95068359 L6.31005859,7.95068359 L6.31005859,12.4404297 C6.31005859,12.887207 6.68359375,13.2607422 7.13037109,13.2607422 C7.57714844,13.2607422 7.95068359,12.887207 7.95068359,12.4404297 L7.95068359,7.95068359 L12.4404297,7.95068359 C12.887207,7.95068359 13.2607422,7.58447266 13.2607422,7.13037109 C13.2607422,6.68359375 12.887207,6.31005859 12.4404297,6.31005859 L7.95068359,6.31005859 L7.95068359,1.8203125 C7.95068359,1.37353516 7.57714844,1 7.13037109,1 C6.68359375,1 6.31005859,1.37353516 6.31005859,1.8203125 L6.31005859,6.31005859 L1.8203125,6.31005859 C1.37353516,6.31005859 1,6.68359375 1,7.13037109 Z" id="Path" fill="#FFFFFF" fill-rule="nonzero"></path>
                        </g>
                    </g>
                </g>
            </g>
        </g>
    </g>
</svg>