<?xml version="1.0" encoding="UTF-8" standalone="no"?>
<!DOCTYPE svg PUBLIC "-//W3C//DTD SVG 1.1//EN" "http://www.w3.org/Graphics/SVG/1.1/DTD/svg11.dtd">
<svg width="100%" height="100%" viewBox="0 0 24 24" version="1.1" xmlns="http://www.w3.org/2000/svg" xmlns:xlink="http://www.w3.org/1999/xlink" xml:space="preserve" xmlns:serif="http://www.serif.com/" style="fill-rule:evenodd;clip-rule:evenodd;stroke-linejoin:round;stroke-miterlimit:2;">
    <g transform="matrix(1,0,0,1,-230,0)">
        <g id="Artboard7" transform="matrix(1,0,0,1,-195.333,0)">
            <rect x="425.333" y="0" width="24" height="24" style="fill:none;"/>
            <g transform="matrix(0.377093,0,0,0.377093,341.596,14.8933)">
                <path d="M228.338,-7.673C228.338,-5.781 229.895,-4.255 231.756,-4.255L250.464,-4.255L250.464,14.453C250.464,16.314 252.02,17.871 253.882,17.871C255.743,17.871 257.299,16.314 257.299,14.453L257.299,-4.255L276.007,-4.255C277.868,-4.255 279.425,-5.781 279.425,-7.673C279.425,-9.534 277.868,-11.091 276.007,-11.091L257.299,-11.091L257.299,-29.798C257.299,-31.66 255.743,-33.216 253.882,-33.216C252.02,-33.216 250.464,-31.66 250.464,-29.798L250.464,-11.091L231.756,-11.091C229.895,-11.091 228.338,-9.534 228.338,-7.673Z" style="fill:rgb(0,162,0);fill-rule:nonzero;"/>
            </g>
        </g>
    </g>
</svg>
