<?xml version="1.0" encoding="UTF-8" standalone="no"?>
<!DOCTYPE svg PUBLIC "-//W3C//DTD SVG 1.1//EN" "http://www.w3.org/Graphics/SVG/1.1/DTD/svg11.dtd">
<svg width="100%" height="100%" viewBox="0 0 19 19" version="1.1" xmlns="http://www.w3.org/2000/svg" xmlns:xlink="http://www.w3.org/1999/xlink" xml:space="preserve" xmlns:serif="http://www.serif.com/" style="fill-rule:evenodd;clip-rule:evenodd;stroke-linejoin:round;stroke-miterlimit:2;">
    <g transform="matrix(1,0,0,1,-650,0)">
        <g id="Artboard18" transform="matrix(1,0,0,1,-197.333,0)">
            <rect x="847.333" y="0" width="19" height="19" style="fill:none;"/>
            <clipPath id="_clip1">
                <rect x="847.333" y="0" width="19" height="19"/>
            </clipPath>
            <g clip-path="url(#_clip1)">
                <g transform="matrix(0.38149,0,0,0.38149,596.078,12.6004)">
                    <path d="M683.517,16.775C697.14,16.775 708.42,5.472 708.42,-8.127C708.42,-21.75 697.116,-33.029 683.493,-33.029C669.894,-33.029 658.615,-21.75 658.615,-8.127C658.615,5.472 669.919,16.775 683.517,16.775ZM675.314,2.127C674.191,2.127 673.312,1.224 673.312,0.101C673.312,-0.437 673.508,-0.949 673.898,-1.315L680.661,-8.103L673.898,-14.865C673.508,-15.256 673.312,-15.744 673.312,-16.281C673.312,-17.429 674.191,-18.283 675.314,-18.283C675.876,-18.283 676.315,-18.088 676.706,-17.722L683.517,-10.935L690.378,-17.746C690.793,-18.161 691.232,-18.332 691.769,-18.332C692.892,-18.332 693.796,-17.453 693.796,-16.33C693.796,-15.769 693.625,-15.329 693.185,-14.89L686.398,-8.103L693.161,-1.34C693.576,-0.974 693.771,-0.461 693.771,0.101C693.771,1.224 692.868,2.127 691.72,2.127C691.159,2.127 690.646,1.932 690.28,1.541L683.517,-5.246L676.779,1.541C676.388,1.932 675.876,2.127 675.314,2.127Z" style="fill:rgb(236,0,0);fill-rule:nonzero;"/>
                </g>
            </g>
        </g>
    </g>
</svg>
