<?xml version="1.0" encoding="UTF-8" standalone="no"?>
<!DOCTYPE svg PUBLIC "-//W3C//DTD SVG 1.1//EN" "http://www.w3.org/Graphics/SVG/1.1/DTD/svg11.dtd">
<svg width="100%" height="100%" viewBox="0 0 41 41" version="1.1" xmlns="http://www.w3.org/2000/svg" xmlns:xlink="http://www.w3.org/1999/xlink" xml:space="preserve" xmlns:serif="http://www.serif.com/" style="fill-rule:evenodd;clip-rule:evenodd;stroke-linejoin:round;stroke-miterlimit:2;">
    <g id="Artboard1" transform="matrix(0.105128,0,0,0.0485782,0,0)">
        <rect x="0" y="0" width="390" height="844" style="fill:none;"/>
        <g transform="matrix(2.43927,0,0,5.27883,-110.123,-385.398)">
            <path d="M86.935,139.129C89.755,139.129 91.165,137.705 91.165,134.856L91.165,125.243C91.165,123.164 91.684,121.612 92.724,120.586C93.764,119.561 95.28,119.048 97.274,119.048L107.144,119.048C109.963,119.048 111.373,117.638 111.373,114.818C111.373,112.027 109.963,110.631 107.144,110.631L96.762,110.631C92.147,110.631 88.658,111.799 86.294,114.135C83.93,116.47 82.748,119.917 82.748,124.474L82.748,134.856C82.748,137.705 84.144,139.129 86.935,139.129ZM163.198,139.129C166.018,139.129 167.428,137.705 167.428,134.856L167.428,124.474C167.428,119.917 166.246,116.47 163.882,114.135C161.518,111.799 158.014,110.631 153.372,110.631L142.99,110.631C140.17,110.631 138.76,112.027 138.76,114.818C138.76,117.638 140.17,119.048 142.99,119.048L152.859,119.048C154.824,119.048 156.341,119.561 157.409,120.586C158.477,121.612 159.011,123.164 159.011,125.243L159.011,134.856C159.011,137.705 160.407,139.129 163.198,139.129ZM96.762,195.269L107.144,195.269C109.963,195.269 111.373,193.873 111.373,191.082C111.373,188.262 109.963,186.852 107.144,186.852L97.274,186.852C95.28,186.852 93.764,186.339 92.724,185.314C91.684,184.289 91.165,182.736 91.165,180.657L91.165,171.044C91.165,168.196 89.755,166.772 86.935,166.772C84.144,166.772 82.748,168.196 82.748,171.044L82.748,181.383C82.748,185.941 83.93,189.394 86.294,191.744C88.658,194.094 92.147,195.269 96.762,195.269ZM142.99,195.269L153.372,195.269C158.014,195.269 161.518,194.094 163.882,191.744C166.246,189.394 167.428,185.941 167.428,181.383L167.428,171.044C167.428,168.196 166.018,166.772 163.198,166.772C160.407,166.772 159.011,168.196 159.011,171.044L159.011,180.657C159.011,182.736 158.477,184.289 157.409,185.314C156.341,186.339 154.824,186.852 152.859,186.852L142.99,186.852C140.17,186.852 138.76,188.262 138.76,191.082C138.76,193.873 140.17,195.269 142.99,195.269ZM106.503,173.394L121.328,173.394C121.869,173.394 122.318,173.216 122.674,172.86C123.03,172.504 123.208,172.055 123.208,171.514L123.208,156.689C123.208,156.147 123.03,155.699 122.674,155.343C122.318,154.987 121.869,154.809 121.328,154.809L106.503,154.809C105.99,154.809 105.549,154.987 105.178,155.343C104.808,155.699 104.623,156.147 104.623,156.689L104.623,171.514C104.623,172.055 104.808,172.504 105.178,172.86C105.549,173.216 105.99,173.394 106.503,173.394ZM108.34,169.677L108.34,158.526L119.491,158.526L119.491,169.677L108.34,169.677ZM111.587,166.387L116.244,166.387L116.244,161.73L111.587,161.73L111.587,166.387ZM106.503,151.092L121.328,151.092C121.869,151.092 122.318,150.914 122.674,150.558C123.03,150.202 123.208,149.767 123.208,149.255L123.208,134.386C123.208,133.874 123.03,133.432 122.674,133.062C122.318,132.692 121.869,132.506 121.328,132.506L106.503,132.506C105.99,132.506 105.549,132.692 105.178,133.062C104.808,133.432 104.623,133.874 104.623,134.386L104.623,149.255C104.623,149.767 104.808,150.202 105.178,150.558C105.549,150.914 105.99,151.092 106.503,151.092ZM108.34,147.375L108.34,136.223L119.491,136.223L119.491,147.375L108.34,147.375ZM111.587,144.128L116.244,144.128L116.244,139.471L111.587,139.471L111.587,144.128ZM128.762,151.092L143.588,151.092C144.129,151.092 144.57,150.914 144.912,150.558C145.254,150.202 145.425,149.767 145.425,149.255L145.425,134.386C145.425,133.874 145.254,133.432 144.912,133.062C144.57,132.692 144.129,132.506 143.588,132.506L128.762,132.506C128.221,132.506 127.772,132.692 127.416,133.062C127.06,133.432 126.882,133.874 126.882,134.386L126.882,149.255C126.882,149.767 127.06,150.202 127.416,150.558C127.772,150.914 128.221,151.092 128.762,151.092ZM130.599,147.375L130.599,136.223L141.751,136.223L141.751,147.375L130.599,147.375ZM133.846,144.128L138.503,144.128L138.503,139.471L133.846,139.471L133.846,144.128ZM127.438,172.838L132.052,172.838L132.052,168.182L127.438,168.182L127.438,172.838ZM140.255,172.838L144.912,172.838L144.912,168.182L140.255,168.182L140.255,172.838ZM133.846,166.387L138.503,166.387L138.503,161.73L133.846,161.73L133.846,166.387ZM127.438,159.978L132.052,159.978L132.052,155.321L127.438,155.321L127.438,159.978ZM140.255,159.978L144.912,159.978L144.912,155.321L140.255,155.321L140.255,159.978Z" style="fill-rule:nonzero;"/>
        </g>
    </g>
</svg>
