<?xml version="1.0" encoding="UTF-8"?>
<svg width="20px" height="20px" viewBox="0 0 20 20" version="1.1" xmlns="http://www.w3.org/2000/svg" xmlns:xlink="http://www.w3.org/1999/xlink">
    <title>Group 8</title>
    <g id="General" stroke="none" stroke-width="1" fill="none" fill-rule="evenodd">
        <g id="Signup" transform="translate(-22.000000, -175.000000)" fill="#959599" fill-rule="nonzero">
            <g id="Group-6" transform="translate(16.000000, 167.000000)">
                <g id="Group-8" transform="translate(6.000000, 8.000000)">
                    <g id="􀊫" transform="translate(2.105957, 1.822266)">
                        <path d="M0,6.62402344 C0,7.53710938 0.171549479,8.39347331 0.514648438,9.19311523 C0.857747396,9.99275716 1.33365885,10.6969401 1.94238281,11.3056641 C2.55110677,11.914388 3.25528971,12.3902995 4.05493164,12.7333984 C4.85457357,13.0764974 5.7109375,13.2480469 6.62402344,13.2480469 C7.34342448,13.2480469 8.0296224,13.1373698 8.68261719,12.9160156 C9.33561198,12.6946615 9.93326823,12.3902995 10.4755859,12.0029297 L14.5595703,16.0952148 C14.6591797,16.1892904 14.7684733,16.259847 14.8874512,16.3068848 C15.006429,16.3539225 15.1323242,16.3774414 15.2651367,16.3774414 C15.4532878,16.3774414 15.6193034,16.334554 15.7631836,16.2487793 C15.9070638,16.1630046 16.0191243,16.0454102 16.0993652,15.8959961 C16.1796061,15.746582 16.2197266,15.5805664 16.2197266,15.3979492 C16.2197266,15.2651367 16.1962077,15.140625 16.1491699,15.0244141 C16.1021322,14.9082031 16.0343424,14.8058268 15.9458008,14.7172852 L11.8867188,10.6333008 C12.3128255,10.0799154 12.6462402,9.46289063 12.8869629,8.78222656 C13.1276855,8.1015625 13.2480469,7.38216146 13.2480469,6.62402344 C13.2480469,5.7109375 13.0764974,4.85457357 12.7333984,4.05493164 C12.3902995,3.25528971 11.914388,2.55110677 11.3056641,1.94238281 C10.6969401,1.33365885 9.99275716,0.857747396 9.19311523,0.514648438 C8.39347331,0.171549479 7.53710938,0 6.62402344,0 C5.7109375,0 4.85457357,0.171549479 4.05493164,0.514648438 C3.25528971,0.857747396 2.55110677,1.33365885 1.94238281,1.94238281 C1.33365885,2.55110677 0.857747396,3.25528971 0.514648438,4.05493164 C0.171549479,4.85457357 0,5.7109375 0,6.62402344 Z M1.41943359,6.62402344 C1.41943359,5.9046224 1.55362956,5.23087565 1.82202148,4.6027832 C2.09041341,3.97469076 2.46394857,3.42130534 2.94262695,2.94262695 C3.42130534,2.46394857 3.97469076,2.09041341 4.6027832,1.82202148 C5.23087565,1.55362956 5.9046224,1.41943359 6.62402344,1.41943359 C7.34342448,1.41943359 8.01717122,1.55362956 8.64526367,1.82202148 C9.27335612,2.09041341 9.82535807,2.46394857 10.3012695,2.94262695 C10.777181,3.42130534 11.1507161,3.97469076 11.421875,4.6027832 C11.6930339,5.23087565 11.8286133,5.9046224 11.8286133,6.62402344 C11.8286133,7.34342448 11.6930339,8.01717122 11.421875,8.64526367 C11.1507161,9.27335612 10.777181,9.82535807 10.3012695,10.3012695 C9.82535807,10.777181 9.27335612,11.1507161 8.64526367,11.421875 C8.01717122,11.6930339 7.34342448,11.8286133 6.62402344,11.8286133 C5.9046224,11.8286133 5.23087565,11.6930339 4.6027832,11.421875 C3.97469076,11.1507161 3.42130534,10.777181 2.94262695,10.3012695 C2.46394857,9.82535807 2.09041341,9.27335612 1.82202148,8.64526367 C1.55362956,8.01717122 1.41943359,7.34342448 1.41943359,6.62402344 Z" id="Shape"></path>
                    </g>
                </g>
            </g>
        </g>
    </g>
</svg>