<?xml version="1.0" encoding="UTF-8" standalone="no"?>
<!DOCTYPE svg PUBLIC "-//W3C//DTD SVG 1.1//EN" "http://www.w3.org/Graphics/SVG/1.1/DTD/svg11.dtd">
<svg width="100%" height="100%" viewBox="0 0 24 24" version="1.1" xmlns="http://www.w3.org/2000/svg" xmlns:xlink="http://www.w3.org/1999/xlink" xml:space="preserve" xmlns:serif="http://www.serif.com/" style="fill-rule:evenodd;clip-rule:evenodd;stroke-linejoin:round;stroke-miterlimit:2;">
    <g transform="matrix(1,0,0,1,-60,0)">
        <g id="Artboard2" transform="matrix(0.585366,0,0,0.585366,-85.9512,0)">
            <rect x="249.333" y="0" width="41" height="41" style="fill:none;"/>
            <g transform="matrix(0.735215,0,0,0.735215,195.559,11.5558)">
                <path d="M77.172,7.563C77.172,10.249 77.676,12.768 78.685,15.12C79.695,17.471 81.094,19.543 82.885,21.333C84.675,23.123 86.746,24.523 89.098,25.532C91.45,26.541 93.969,27.046 96.654,27.046C98.77,27.046 100.788,26.72 102.709,26.069C104.629,25.418 106.387,24.523 107.982,23.384L119.994,35.42C120.287,35.697 120.608,35.904 120.958,36.042C121.308,36.181 121.679,36.25 122.069,36.25C122.623,36.25 123.111,36.124 123.534,35.872C123.957,35.619 124.287,35.273 124.523,34.834C124.759,34.394 124.877,33.906 124.877,33.369C124.877,32.978 124.808,32.612 124.669,32.27C124.531,31.929 124.332,31.628 124.071,31.367L112.133,19.355C113.386,17.728 114.367,15.913 115.075,13.911C115.783,11.909 116.137,9.793 116.137,7.563C116.137,4.878 115.632,2.359 114.623,0.007C113.614,-2.345 112.214,-4.416 110.424,-6.206C108.633,-7.996 106.562,-9.396 104.21,-10.405C101.858,-11.414 99.34,-11.919 96.654,-11.919C93.969,-11.919 91.45,-11.414 89.098,-10.405C86.746,-9.396 84.675,-7.996 82.885,-6.206C81.094,-4.416 79.695,-2.345 78.685,0.007C77.676,2.359 77.172,4.878 77.172,7.563ZM81.347,7.563C81.347,5.448 81.741,3.466 82.531,1.619C83.32,-0.229 84.419,-1.856 85.827,-3.264C87.234,-4.672 88.862,-5.771 90.709,-6.56C92.557,-7.349 94.538,-7.744 96.654,-7.744C98.77,-7.744 100.752,-7.349 102.599,-6.56C104.446,-5.771 106.07,-4.672 107.47,-3.264C108.869,-1.856 109.968,-0.229 110.766,1.619C111.563,3.466 111.962,5.448 111.962,7.563C111.962,9.679 111.563,11.661 110.766,13.508C109.968,15.356 108.869,16.979 107.47,18.379C106.07,19.779 104.446,20.877 102.599,21.675C100.752,22.472 98.77,22.871 96.654,22.871C94.538,22.871 92.557,22.472 90.709,21.675C88.862,20.877 87.234,19.779 85.827,18.379C84.419,16.979 83.32,15.356 82.531,13.508C81.741,11.661 81.347,9.679 81.347,7.563Z" style="fill:rgb(108,108,108);fill-rule:nonzero;"/>
            </g>
        </g>
    </g>
</svg>
