<?xml version="1.0" encoding="UTF-8" standalone="no"?>
<!DOCTYPE svg PUBLIC "-//W3C//DTD SVG 1.1//EN" "http://www.w3.org/Graphics/SVG/1.1/DTD/svg11.dtd">
<svg width="100%" height="100%" viewBox="0 0 24 24" version="1.1" xmlns="http://www.w3.org/2000/svg" xmlns:xlink="http://www.w3.org/1999/xlink" xml:space="preserve" xmlns:serif="http://www.serif.com/" style="fill-rule:evenodd;clip-rule:evenodd;stroke-linejoin:round;stroke-miterlimit:2;">
    <g transform="matrix(1,0,0,1,-60,0)">
        <g id="Artboard2" transform="matrix(0.585366,0,0,0.585366,-85.9512,0)">
            <rect x="249.333" y="0" width="41" height="41" style="fill:none;"/>
            <g transform="matrix(0.392656,0,0,0.392656,232.933,25.7531)">
                <path d="M53.815,-20.784C53.815,-2.514 68.667,12.338 86.937,12.338C93.732,12.338 99.958,10.263 105.166,6.723L123.884,25.44C125.023,26.62 126.61,27.149 128.197,27.149C131.655,27.149 134.138,24.545 134.138,21.168C134.138,19.54 133.568,18.035 132.469,16.895L113.874,-1.741C117.739,-7.071 120.059,-13.663 120.059,-20.784C120.059,-39.054 105.207,-53.906 86.937,-53.906C68.667,-53.906 53.815,-39.054 53.815,-20.784ZM62.442,-20.784C62.442,-34.293 73.387,-45.279 86.937,-45.279C100.446,-45.279 111.433,-34.293 111.433,-20.784C111.433,-7.275 100.446,3.712 86.937,3.712C73.387,3.712 62.442,-7.275 62.442,-20.784Z" style="fill:rgb(108,108,108);fill-rule:nonzero;"/>
            </g>
        </g>
    </g>
</svg>
