<?xml version="1.0" encoding="UTF-8"?>
<svg width="22px" height="22px" viewBox="0 0 22 22" version="1.1" xmlns="http://www.w3.org/2000/svg" xmlns:xlink="http://www.w3.org/1999/xlink">
    <title>Shape</title>
    <g id="General" stroke="none" stroke-width="1" fill="none" fill-rule="evenodd">
        <g id="Search-Entry" transform="translate(-320.000000, -14.000000)" fill="#30D158" fill-rule="nonzero">
            <g id="Group-2" transform="translate(16.000000, 6.000000)">
                <g id="ô€" transform="translate(304.000000, 8.000000)">
                    <path d="M11,22 C17.0164569,22 22,17.0271055 22,11 C22,4.98354308 17.0164569,0 10.9893514,0 C4.97289448,0 0,4.98354308 0,11 C0,17.0271055 4.98354308,22 11,22 Z M5.7928364,11.0106486 C5.7928364,10.39303 6.22942885,9.95643756 6.84704743,9.95643756 L9.95643756,9.95643756 L9.95643756,6.83639884 C9.95643756,6.22942885 10.3823814,5.7821878 10.9893514,5.7821878 C11.60697,5.7821878 12.0435624,6.22942885 12.0435624,6.83639884 L12.0435624,9.95643756 L15.1636012,9.95643756 C15.7705712,9.95643756 16.2071636,10.39303 16.2071636,11.0106486 C16.2071636,11.6176186 15.7705712,12.0435624 15.1636012,12.0435624 L12.0435624,12.0435624 L12.0435624,15.1636012 C12.0435624,15.7705712 11.60697,16.2071636 10.9893514,16.2071636 C10.3823814,16.2071636 9.95643756,15.7705712 9.95643756,15.1636012 L9.95643756,12.0435624 L6.84704743,12.0435624 C6.22942885,12.0435624 5.7928364,11.6176186 5.7928364,11.0106486 Z" id="Shape"></path>
                </g>
            </g>
        </g>
    </g>
</svg>