<?xml version="1.0" encoding="UTF-8"?>
<svg width="24px" height="23px" viewBox="0 0 24 23" version="1.1" xmlns="http://www.w3.org/2000/svg" xmlns:xlink="http://www.w3.org/1999/xlink">
    <title>􀁍</title>
    <g id="General" stroke="none" stroke-width="1" fill="none" fill-rule="evenodd">
        <g id="Signup" transform="translate(-331.000000, -180.000000)" fill="#3ED011" fill-rule="nonzero">
            <g id="Group-5" transform="translate(16.000000, 172.000000)">
                <g id="Group-2" transform="translate(15.000000, 0.000000)">
                    <g id="􀁍" transform="translate(300.922852, 8.147461)">
                        <path d="M11.0966797,22.1933594 C17.1660156,22.1933594 22.1933594,17.1767578 22.1933594,11.0966797 C22.1933594,5.02734375 17.1660156,0 11.0859375,0 C5.01660156,0 0,5.02734375 0,11.0966797 C0,17.1767578 5.02734375,22.1933594 11.0966797,22.1933594 Z M5.84375,11.1074219 C5.84375,10.484375 6.28417969,10.0439453 6.90722656,10.0439453 L10.0439453,10.0439453 L10.0439453,6.89648438 C10.0439453,6.28417969 10.4736328,5.83300781 11.0859375,5.83300781 C11.7089844,5.83300781 12.1494141,6.28417969 12.1494141,6.89648438 L12.1494141,10.0439453 L15.296875,10.0439453 C15.9091797,10.0439453 16.3496094,10.484375 16.3496094,11.1074219 C16.3496094,11.7197266 15.9091797,12.1494141 15.296875,12.1494141 L12.1494141,12.1494141 L12.1494141,15.296875 C12.1494141,15.9091797 11.7089844,16.3496094 11.0859375,16.3496094 C10.4736328,16.3496094 10.0439453,15.9091797 10.0439453,15.296875 L10.0439453,12.1494141 L6.90722656,12.1494141 C6.28417969,12.1494141 5.84375,11.7197266 5.84375,11.1074219 Z" id="Shape"></path>
                    </g>
                </g>
            </g>
        </g>
    </g>
</svg>