<?xml version="1.0" encoding="UTF-8"?>
<svg width="20px" height="20px" viewBox="0 0 20 20" version="1.1" xmlns="http://www.w3.org/2000/svg" xmlns:xlink="http://www.w3.org/1999/xlink">
    <title>Group 17</title>
    <g id="December-Delights" stroke="none" stroke-width="1" fill="none" fill-rule="evenodd">
        <g id="Main-Page" transform="translate(-156.000000, -1493.000000)">
            <g id="Group-13" transform="translate(113.000000, 1482.000000)">
                <g id="Group-17" transform="translate(43.000000, 11.000000)">
                    <rect id="Rectangle" x="0" y="0" width="20" height="20"></rect>
                    <g id="􀈼" transform="translate(2.788580, 1.025391)" fill="#FFFFFF" fill-rule="nonzero">
                        <path d="M2.69775391,17.9711914 L11.5380859,17.9711914 C13.3144531,17.9711914 14.2358398,17.0332031 14.2358398,15.2485352 L14.2358398,7.81933594 L8.02685547,7.81933594 C6.98925781,7.81933594 6.49121094,7.31298828 6.49121094,6.27539062 L6.49121094,0 L2.69775391,0 C0.921386719,0 0,0.937988281 0,2.72265625 L0,15.2485352 C0,17.0415039 0.921386719,17.9711914 2.69775391,17.9711914 Z M8.17626953,6.60742188 L14.1445312,6.60742188 C14.0947266,6.23388672 13.8208008,5.87695312 13.3974609,5.43701172 L8.85693359,0.830078125 C8.45019531,0.415039062 8.07666016,0.1328125 7.69482422,0.0830078125 L7.69482422,6.13427734 C7.69482422,6.44970703 7.86083984,6.60742188 8.17626953,6.60742188 Z M7.11376953,15.8212891 C6.74023438,15.8212891 6.42480469,15.5307617 6.42480469,15.1572266 L6.42480469,12.409668 L6.49121094,11.1645508 L5.86035156,11.8120117 L5.1796875,12.5092773 C5.05517578,12.6337891 4.87255859,12.7167969 4.71484375,12.7167969 C4.34960938,12.7167969 4.08398438,12.4677734 4.08398438,12.1191406 C4.08398438,11.9199219 4.15869141,11.7705078 4.29980469,11.6376953 L6.59082031,9.53759766 C6.7734375,9.37158203 6.92285156,9.296875 7.11376953,9.296875 C7.3046875,9.296875 7.46240234,9.37158203 7.64501953,9.53759766 L9.92773438,11.6376953 C10.0771484,11.7705078 10.1518555,11.9199219 10.1518555,12.1191406 C10.1518555,12.4677734 9.87792969,12.7167969 9.52099609,12.7167969 C9.35498047,12.7167969 9.18066406,12.6337891 9.05615234,12.5092773 L8.37548828,11.8120117 L7.74462891,11.1645508 L7.81103516,12.409668 L7.81103516,15.1572266 C7.81103516,15.5307617 7.49560547,15.8212891 7.11376953,15.8212891 Z" id="Shape"></path>
                    </g>
                </g>
            </g>
        </g>
    </g>
</svg>