<?xml version="1.0" encoding="UTF-8" standalone="no"?>
<!DOCTYPE svg PUBLIC "-//W3C//DTD SVG 1.1//EN" "http://www.w3.org/Graphics/SVG/1.1/DTD/svg11.dtd">
<svg width="100%" height="100%" viewBox="0 0 19 19" version="1.1" xmlns="http://www.w3.org/2000/svg" xmlns:xlink="http://www.w3.org/1999/xlink" xml:space="preserve" xmlns:serif="http://www.serif.com/" style="fill-rule:evenodd;clip-rule:evenodd;stroke-linejoin:round;stroke-miterlimit:2;">
    <g transform="matrix(1,0,0,1,-880,0)">
        <g id="Artboard23" transform="matrix(1,0,0,1,-187.333,0)">
            <rect x="1067.33" y="0" width="19" height="19" style="fill:none;"/>
            <g transform="matrix(0.188792,0,0,0.188792,904.94,13.4159)">
                <path d="M885.645,29.421L935.34,29.421C945.026,29.421 949.846,24.508 949.846,14.775L949.846,-27.714L915.967,-27.714C909.978,-27.714 907.123,-30.568 907.123,-36.558L907.123,-70.904L885.645,-70.904C876.005,-70.904 871.139,-65.944 871.139,-56.211L871.139,14.775C871.139,24.555 875.959,29.421 885.645,29.421ZM916.108,-34.125L949.284,-34.125C949.004,-36.043 947.646,-37.915 945.4,-40.208L919.617,-66.459C917.418,-68.705 915.499,-70.062 913.534,-70.39L913.534,-36.652C913.534,-34.967 914.376,-34.125 916.108,-34.125ZM910.539,17.255C908.667,17.255 907.076,15.757 907.076,13.932L907.076,-2.633L907.404,-10.026L903.473,-6.002L899.355,-1.837C898.7,-1.182 897.811,-0.808 896.969,-0.808C895.097,-0.808 893.787,-2.118 893.787,-3.896C893.787,-4.925 894.208,-5.721 894.91,-6.329L908.012,-18.402C908.948,-19.244 909.65,-19.572 910.539,-19.572C911.381,-19.572 912.13,-19.244 913.066,-18.402L926.168,-6.329C926.823,-5.721 927.291,-4.925 927.291,-3.896C927.291,-2.118 925.887,-0.808 924.063,-0.808C923.22,-0.808 922.331,-1.182 921.676,-1.837L917.605,-6.002L913.674,-10.026L913.955,-2.633L913.955,13.932C913.955,15.757 912.411,17.255 910.539,17.255Z" style="fill:rgb(0,154,0);fill-rule:nonzero;"/>
            </g>
        </g>
    </g>
</svg>
