<?xml version="1.0" encoding="UTF-8"?>
<svg width="19px" height="22px" viewBox="0 0 19 22" version="1.1" xmlns="http://www.w3.org/2000/svg" xmlns:xlink="http://www.w3.org/1999/xlink">
    <title>Group 19</title>
    <g id="December-Delights" stroke="none" stroke-width="1" fill="none" fill-rule="evenodd">
        <g id="Main-Page" transform="translate(-32.000000, -1319.000000)" fill="#FF453A" fill-rule="nonzero">
            <g id="Group-7" transform="translate(16.000000, 972.000000)">
                <g id="Group-14" transform="translate(0.000000, 336.000000)">
                    <g id="Group-19" transform="translate(16.000000, 11.000000)">
                        <g id="􀈒" transform="translate(1.460693, 0.937988)">
                            <path d="M0.622558594,4.54882812 L1.87597656,4.54882812 L2.40722656,16.6762695 C2.44873047,17.7055664 3.07128906,18.2783203 4.09228516,18.2783203 L11.9863281,18.2783203 C13.015625,18.2783203 13.6381836,17.7055664 13.6796875,16.6762695 L14.2192383,4.54882812 L15.4560547,4.54882812 C15.7963867,4.54882812 16.0786133,4.25830078 16.0786133,3.91796875 C16.0786133,3.57763672 15.7963867,3.29541016 15.4560547,3.29541016 L11.7539062,3.29541016 L11.7539062,2.02539062 C11.7539062,0.771972656 10.9321289,0 9.60400391,0 L6.45800781,0 C5.12988281,0 4.30810547,0.771972656 4.30810547,2.02539062 L4.30810547,3.29541016 L0.622558594,3.29541016 C0.290527344,3.29541016 0,3.57763672 0,3.91796875 C0,4.26660156 0.290527344,4.54882812 0.622558594,4.54882812 Z M5.81054688,2.10839844 C5.81054688,1.69335938 6.10107422,1.41113281 6.54931641,1.41113281 L9.52099609,1.41113281 C9.96923828,1.41113281 10.2597656,1.69335938 10.2597656,2.10839844 L10.2597656,3.29541016 L5.81054688,3.29541016 L5.81054688,2.10839844 Z M5.41210938,15.9042969 C5.11328125,15.9042969 4.90576172,15.7133789 4.89746094,15.4145508 L4.64013672,6.375 C4.63183594,6.08447266 4.83935547,5.88525391 5.16308594,5.88525391 C5.45361328,5.88525391 5.66943359,6.07617188 5.67773438,6.36669922 L5.92675781,15.4145508 C5.93505859,15.7050781 5.72753906,15.9042969 5.41210938,15.9042969 Z M8.04345703,15.9042969 C7.72802734,15.9042969 7.50390625,15.7050781 7.50390625,15.4145508 L7.50390625,6.375 C7.50390625,6.08447266 7.72802734,5.88525391 8.04345703,5.88525391 C8.35888672,5.88525391 8.57470703,6.08447266 8.57470703,6.375 L8.57470703,15.4145508 C8.57470703,15.7050781 8.35888672,15.9042969 8.04345703,15.9042969 Z M10.6665039,15.9042969 C10.3510742,15.9042969 10.1435547,15.7050781 10.1518555,15.4145508 L10.4008789,6.375 C10.4091797,6.07617188 10.625,5.88525391 10.9155273,5.88525391 C11.230957,5.88525391 11.4467773,6.08447266 11.4384766,6.375 L11.1811523,15.4145508 C11.1728516,15.7133789 10.965332,15.9042969 10.6665039,15.9042969 Z" id="Shape"></path>
                        </g>
                    </g>
                </g>
            </g>
        </g>
    </g>
</svg>