<?xml version="1.0" encoding="UTF-8" standalone="no"?>
<!DOCTYPE svg PUBLIC "-//W3C//DTD SVG 1.1//EN" "http://www.w3.org/Graphics/SVG/1.1/DTD/svg11.dtd">
<svg width="100%" height="100%" viewBox="0 0 19 19" version="1.1" xmlns="http://www.w3.org/2000/svg" xmlns:xlink="http://www.w3.org/1999/xlink" xml:space="preserve" xmlns:serif="http://www.serif.com/" style="fill-rule:evenodd;clip-rule:evenodd;stroke-linejoin:round;stroke-miterlimit:2;">
    <g transform="matrix(1,0,0,1,-780,0)">
        <g id="Artboard21" transform="matrix(1,0,0,1,-177.333,0)">
            <rect x="957.333" y="0" width="19" height="19" style="fill:none;"/>
            <clipPath id="_clip1">
                <rect x="957.333" y="0" width="19" height="19"/>
            </clipPath>
            <g clip-path="url(#_clip1)">
                <g transform="matrix(0.248697,0,0,0.248697,766.815,14.2814)">
                    <path d="M787.818,18.735L820.71,18.735C824.999,18.735 827.593,16.348 827.766,12.059L829.979,-38.472L835.167,-38.472C836.585,-38.472 837.761,-39.682 837.761,-41.1C837.761,-42.518 836.585,-43.694 835.167,-43.694L819.742,-43.694L819.742,-48.986C819.742,-54.208 816.317,-57.425 810.784,-57.425L797.675,-57.425C792.141,-57.425 788.717,-54.208 788.717,-48.986L788.717,-43.694L773.361,-43.694C771.977,-43.694 770.767,-42.518 770.767,-41.1C770.767,-39.648 771.977,-38.472 773.361,-38.472L778.583,-38.472L780.797,12.059C780.97,16.348 783.564,18.735 787.818,18.735ZM794.978,-48.64C794.978,-50.369 796.188,-51.545 798.056,-51.545L810.438,-51.545C812.305,-51.545 813.516,-50.369 813.516,-48.64L813.516,-43.694L794.978,-43.694L794.978,-48.64ZM793.317,8.843C792.072,8.843 791.208,8.047 791.173,6.802L790.101,-30.863C790.066,-32.073 790.931,-32.903 792.28,-32.903C793.49,-32.903 794.39,-32.108 794.424,-30.897L795.462,6.802C795.496,8.013 794.632,8.843 793.317,8.843ZM804.281,8.843C802.967,8.843 802.033,8.013 802.033,6.802L802.033,-30.863C802.033,-32.073 802.967,-32.903 804.281,-32.903C805.596,-32.903 806.495,-32.073 806.495,-30.863L806.495,6.802C806.495,8.013 805.596,8.843 804.281,8.843ZM815.211,8.843C813.896,8.843 813.032,8.013 813.066,6.802L814.104,-30.863C814.138,-32.108 815.038,-32.903 816.248,-32.903C817.563,-32.903 818.462,-32.073 818.427,-30.863L817.355,6.802C817.32,8.047 816.456,8.843 815.211,8.843Z" style="fill:rgb(248,0,0);fill-rule:nonzero;"/>
                </g>
            </g>
        </g>
    </g>
</svg>
