<?xml version="1.0" encoding="UTF-8"?>
<svg width="21px" height="20px" viewBox="0 0 21 20" version="1.1" xmlns="http://www.w3.org/2000/svg" xmlns:xlink="http://www.w3.org/1999/xlink">
    <title>Group 16</title>
    <g id="December-Delights" stroke="none" stroke-width="1" fill="none" fill-rule="evenodd">
        <g id="Committed-Order" transform="translate(-156.000000, -224.000000)">
            <g id="Group-13" transform="translate(121.000000, 212.000000)">
                <g id="Group-16" transform="translate(35.000000, 12.000000)">
                    <rect id="Rectangle" x="0" y="0" width="21" height="20"></rect>
                    <g id="ô€¡" transform="translate(2.033203, 1.533203)" fill="#FFFFFF" fill-rule="nonzero">
                        <path d="M8.46679688,16.9335938 C13.0986328,16.9335938 16.9335938,13.090332 16.9335938,8.46679688 C16.9335938,3.83496094 13.090332,0 8.45849609,0 C3.83496094,0 0,3.83496094 0,8.46679688 C0,13.090332 3.84326172,16.9335938 8.46679688,16.9335938 Z M5.67773438,11.953125 C5.29589844,11.953125 4.99707031,11.6459961 4.99707031,11.2641602 C4.99707031,11.081543 5.06347656,10.9072266 5.19628906,10.7827148 L7.49560547,8.47509766 L5.19628906,6.17578125 C5.06347656,6.04296875 4.99707031,5.87695312 4.99707031,5.69433594 C4.99707031,5.30419922 5.29589844,5.01367188 5.67773438,5.01367188 C5.86865234,5.01367188 6.01806641,5.08007812 6.15087891,5.20458984 L8.46679688,7.51220703 L10.7993164,5.19628906 C10.9404297,5.05517578 11.0898438,4.99707031 11.2724609,4.99707031 C11.6542969,4.99707031 11.9614258,5.29589844 11.9614258,5.67773438 C11.9614258,5.86865234 11.9033203,6.01806641 11.7539062,6.16748047 L9.44628906,8.47509766 L11.7456055,10.7744141 C11.8867188,10.8989258 11.953125,11.0732422 11.953125,11.2641602 C11.953125,11.6459961 11.6459961,11.953125 11.2558594,11.953125 C11.0649414,11.953125 10.890625,11.8867188 10.7661133,11.7539062 L8.46679688,9.44628906 L6.17578125,11.7539062 C6.04296875,11.8867188 5.86865234,11.953125 5.67773438,11.953125 Z" id="Shape"></path>
                    </g>
                </g>
            </g>
        </g>
    </g>
</svg>